<svg width="124" height="20" viewBox="0 0 124 20" fill="none" xmlns="http://www.w3.org/2000/svg">
<path d="M14.9321 11.9335C14.7163 12.1427 14.6171 12.4452 14.6663 12.7418L15.4071 16.8418C15.4696 17.1893 15.3229 17.541 15.0321 17.7418C14.7471 17.9502 14.3679 17.9752 14.0571 17.8085L10.3663 15.8835C10.2379 15.8152 10.0954 15.7785 9.94961 15.7743H9.72378C9.64544 15.786 9.56878 15.811 9.49878 15.8493L5.80711 17.7835C5.62461 17.8752 5.41794 17.9077 5.21544 17.8752C4.72211 17.7818 4.39294 17.3118 4.47378 16.816L5.21544 12.716C5.26461 12.4168 5.16544 12.1127 4.94961 11.9002L1.94045 8.9835C1.68878 8.73933 1.60128 8.37266 1.71628 8.04183C1.82795 7.71183 2.11294 7.471 2.45711 7.41683L6.59878 6.816C6.91378 6.7835 7.19044 6.59183 7.33211 6.3085L9.15711 2.56683C9.20044 2.4835 9.25628 2.40683 9.32378 2.34183L9.39878 2.2835C9.43794 2.24016 9.48294 2.20433 9.53294 2.17516L9.62378 2.14183L9.76544 2.0835H10.1163C10.4296 2.116 10.7054 2.3035 10.8496 2.5835L12.6988 6.3085C12.8321 6.581 13.0913 6.77016 13.3904 6.816L17.5321 7.41683C17.8821 7.46683 18.1746 7.7085 18.2904 8.04183C18.3996 8.376 18.3054 8.74266 18.0488 8.9835L14.9321 11.9335Z" fill="#33FFAD"/>
<path d="M40.9321 11.9335C40.7163 12.1427 40.6171 12.4452 40.6663 12.7418L41.4071 16.8418C41.4696 17.1893 41.3229 17.541 41.0321 17.7418C40.7471 17.9502 40.3679 17.9752 40.0571 17.8085L36.3663 15.8835C36.2379 15.8152 36.0954 15.7785 35.9496 15.7743H35.7238C35.6454 15.786 35.5688 15.811 35.4988 15.8493L31.8071 17.7835C31.6246 17.8752 31.4179 17.9077 31.2154 17.8752C30.7221 17.7818 30.3929 17.3118 30.4738 16.816L31.2154 12.716C31.2646 12.4168 31.1654 12.1127 30.9496 11.9002L27.9404 8.9835C27.6888 8.73933 27.6013 8.37266 27.7163 8.04183C27.8279 7.71183 28.1129 7.471 28.4571 7.41683L32.5988 6.816C32.9138 6.7835 33.1904 6.59183 33.3321 6.3085L35.1571 2.56683C35.2004 2.4835 35.2563 2.40683 35.3238 2.34183L35.3988 2.2835C35.4379 2.24016 35.4829 2.20433 35.5329 2.17516L35.6238 2.14183L35.7654 2.0835H36.1163C36.4296 2.116 36.7054 2.3035 36.8496 2.5835L38.6988 6.3085C38.8321 6.581 39.0913 6.77016 39.3904 6.816L43.5321 7.41683C43.8821 7.46683 44.1746 7.7085 44.2904 8.04183C44.3996 8.376 44.3054 8.74266 44.0488 8.9835L40.9321 11.9335Z" fill="#33FFAD"/>
<path d="M66.9321 11.9335C66.7163 12.1427 66.6171 12.4452 66.6663 12.7418L67.4071 16.8418C67.4696 17.1893 67.3229 17.541 67.0321 17.7418C66.7471 17.9502 66.3679 17.9752 66.0571 17.8085L62.3663 15.8835C62.2379 15.8152 62.0954 15.7785 61.9496 15.7743H61.7238C61.6454 15.786 61.5688 15.811 61.4988 15.8493L57.8071 17.7835C57.6246 17.8752 57.4179 17.9077 57.2154 17.8752C56.7221 17.7818 56.3929 17.3118 56.4738 16.816L57.2154 12.716C57.2646 12.4168 57.1654 12.1127 56.9496 11.9002L53.9404 8.9835C53.6888 8.73933 53.6013 8.37266 53.7163 8.04183C53.8279 7.71183 54.1129 7.471 54.4571 7.41683L58.5988 6.816C58.9138 6.7835 59.1904 6.59183 59.3321 6.3085L61.1571 2.56683C61.2004 2.4835 61.2563 2.40683 61.3238 2.34183L61.3988 2.2835C61.4379 2.24016 61.4829 2.20433 61.5329 2.17516L61.6238 2.14183L61.7654 2.0835H62.1163C62.4296 2.116 62.7054 2.3035 62.8496 2.5835L64.6988 6.3085C64.8321 6.581 65.0913 6.77016 65.3904 6.816L69.5321 7.41683C69.8821 7.46683 70.1746 7.7085 70.2904 8.04183C70.3996 8.376 70.3054 8.74266 70.0488 8.9835L66.9321 11.9335Z" fill="#33FFAD"/>
<path d="M92.9321 11.9335C92.7163 12.1427 92.6171 12.4452 92.6663 12.7418L93.4071 16.8418C93.4696 17.1893 93.3229 17.541 93.0321 17.7418C92.7471 17.9502 92.3679 17.9752 92.0571 17.8085L88.3663 15.8835C88.2379 15.8152 88.0954 15.7785 87.9496 15.7743H87.7238C87.6454 15.786 87.5688 15.811 87.4988 15.8493L83.8071 17.7835C83.6246 17.8752 83.4179 17.9077 83.2154 17.8752C82.7221 17.7818 82.3929 17.3118 82.4738 16.816L83.2154 12.716C83.2646 12.4168 83.1654 12.1127 82.9496 11.9002L79.9404 8.9835C79.6888 8.73933 79.6013 8.37266 79.7163 8.04183C79.8279 7.71183 80.1129 7.471 80.4571 7.41683L84.5988 6.816C84.9138 6.7835 85.1904 6.59183 85.3321 6.3085L87.1571 2.56683C87.2004 2.4835 87.2563 2.40683 87.3238 2.34183L87.3988 2.2835C87.4379 2.24016 87.4829 2.20433 87.5329 2.17516L87.6238 2.14183L87.7654 2.0835H88.1163C88.4296 2.116 88.7054 2.3035 88.8496 2.5835L90.6988 6.3085C90.8321 6.581 91.0913 6.77016 91.3904 6.816L95.5321 7.41683C95.8821 7.46683 96.1746 7.7085 96.2904 8.04183C96.3996 8.376 96.3054 8.74266 96.0488 8.9835L92.9321 11.9335Z" fill="#33FFAD"/>
<path opacity="0.4" d="M114.814 2.59484L116.669 6.3234C116.806 6.59354 117.067 6.78114 117.367 6.82282L121.535 7.4298C121.778 7.46398 121.999 7.59238 122.148 7.78831C122.296 7.98175 122.359 8.22687 122.323 8.46783C122.294 8.66793 122.2 8.85302 122.056 8.99476L119.036 11.9221C118.815 12.1264 118.715 12.429 118.769 12.725L119.512 16.8404C119.591 17.3373 119.262 17.8059 118.769 17.9001C118.565 17.9326 118.357 17.8985 118.173 17.8051L114.456 15.8683C114.18 15.729 113.854 15.729 113.578 15.8683L109.861 17.8051C109.404 18.0477 108.838 17.8826 108.584 17.4324C108.49 17.2531 108.456 17.0489 108.487 16.8496L109.231 12.7333C109.284 12.4382 109.183 12.1339 108.963 11.9296L105.943 9.00393C105.584 8.65709 105.573 8.08597 105.919 7.72662C105.927 7.71911 105.935 7.71078 105.943 7.70244C106.087 7.55653 106.275 7.46398 106.478 7.4398L110.646 6.832C110.946 6.78947 111.207 6.60355 111.344 6.33174L113.133 2.59484C113.292 2.27468 113.622 2.07541 113.981 2.08375H114.093C114.403 2.12127 114.674 2.31386 114.814 2.59484" fill="#33FFAD"/>
<path d="M113.993 15.7644C113.832 15.7694 113.675 15.8128 113.533 15.8904L109.834 17.8228C109.381 18.0388 108.84 17.8712 108.586 17.4383C108.492 17.2615 108.458 17.0588 108.489 16.8603L109.228 12.7528C109.278 12.4542 109.178 12.1506 108.961 11.9405L105.94 9.01556C105.581 8.66444 105.575 8.08813 105.926 7.72867C105.931 7.72367 105.935 7.7195 105.94 7.71533C106.083 7.57354 106.268 7.48013 106.467 7.45094L110.638 6.83711C110.94 6.79874 111.202 6.61025 111.335 6.3367L113.148 2.55276C113.32 2.24751 113.65 2.0657 114 2.08488C113.993 2.33258 113.993 15.596 113.993 15.7644" fill="#33FFAD"/>
</svg>
